<svg xmlns="http://www.w3.org/2000/svg" viewBox="0 0 1200 750" preserveAspectRatio="xMidYMid slice">
  <rect width="1200" height="750" fill="#0d0d12"/>
  <g fill="none" stroke="#f2f0ea" stroke-opacity=".14" stroke-width="1.4">
    <polygon points="600,150 860,280 600,410 340,280"/>
    <polygon points="600,230 860,360 600,490 340,360"/>
    <polygon points="600,310 860,440 600,570 340,440"/>
  </g>
  <polygon points="600,150 860,280 600,410 340,280" fill="#8a5cff" fill-opacity=".9"/>
  <polygon points="340,280 600,410 600,490 340,360" fill="#5d3bb8"/>
  <polygon points="860,280 600,410 600,490 860,360" fill="#3a2478"/>
  <g stroke="#f2f0ea" stroke-width="3" fill="none" stroke-linecap="square"><path d="M600 120 V60 M570 90 L600 60 L630 90"/></g>
  <text x="600" y="305" fill="#f2f0ea" font-family="monospace" font-size="44" font-weight="700" text-anchor="middle" transform="skewY(0)">UNITY 6</text>
  <g fill="#f2f0ea" fill-opacity=".5"><circle cx="180" cy="600" r="4"/><circle cx="1020" cy="170" r="4"/><circle cx="1050" cy="620" r="3"/><circle cx="130" cy="150" r="3"/></g>
</svg>
