<svg xmlns="http://www.w3.org/2000/svg" viewBox="0 0 1200 750" preserveAspectRatio="xMidYMid slice">
  <defs>
    <radialGradient id="g" cx="50%" cy="50%" r="60%"><stop offset="0" stop-color="#2a1a5e"/><stop offset="1" stop-color="#07070a"/></radialGradient>
    <linearGradient id="l" x1="0" x2="1"><stop offset="0" stop-color="#8a5cff" stop-opacity="0"/><stop offset=".5" stop-color="#8a5cff"/><stop offset="1" stop-color="#8a5cff" stop-opacity="0"/></linearGradient>
  </defs>
  <rect width="1200" height="750" fill="url(#g)"/>
  <g fill="none" stroke="#f2f0ea" stroke-opacity=".16" stroke-width="1.2">
    <ellipse cx="600" cy="375" rx="520" ry="170" transform="rotate(-18 600 375)"/>
    <ellipse cx="600" cy="375" rx="380" ry="120" transform="rotate(-18 600 375)"/>
    <ellipse cx="600" cy="375" rx="240" ry="75" transform="rotate(-18 600 375)"/>
    <ellipse cx="600" cy="375" rx="470" ry="300" transform="rotate(38 600 375)" stroke-dasharray="3 9"/>
  </g>
  <g stroke="url(#l)" stroke-width="1.5">
    <line x1="210" y1="520" x2="600" y2="375"/><line x1="600" y1="375" x2="980" y2="250"/>
    <line x1="600" y1="375" x2="830" y2="560"/><line x1="600" y1="375" x2="400" y2="190"/>
  </g>
  <circle cx="600" cy="375" r="46" fill="#8a5cff"/><circle cx="600" cy="375" r="46" fill="none" stroke="#f2f0ea" stroke-opacity=".5" stroke-width="2" transform="scale(1.6) translate(-225 -140)"/>
  <g fill="#f2f0ea"><circle cx="210" cy="520" r="11"/><circle cx="980" cy="250" r="14"/><circle cx="830" cy="560" r="9"/><circle cx="400" cy="190" r="12"/></g>
  <g fill="#8a5cff" fill-opacity=".8"><circle cx="1010" cy="640" r="4"/><circle cx="140" cy="210" r="3"/><circle cx="300" cy="640" r="3"/><circle cx="1080" cy="120" r="3"/></g>
</svg>
